<svg width="704" height="408" viewBox="0 0 704 408" xmlns="http://www.w3.org/2000/svg" xmlns:xlink="http://www.w3.org/1999/xlink" data-cache="1690374386432">
<style>
path.line-0 {
  stroke-dasharray: 1362 1367;
  stroke-dashoffset: 1362;
  animation: draw-0 9613.484772127471ms ease forwards infinite;
}
@keyframes draw-0 {
  0% { stroke-dashoffset: 1362; }
  28.34% { stroke-dashoffset: 0; }
  94.80% { stroke-dashoffset: 0; }
  96.79% { stroke-dashoffset: 1362; }
  100% { stroke-dashoffset: 1362; }
}
path.line-1 {
  stroke-dasharray: 2152 2157;
  stroke-dashoffset: 2152;
  animation: draw-1 9613.484772127471ms ease forwards infinite;
}
@keyframes draw-1 {
  0% { stroke-dashoffset: 2152; }
  28.344294872219976% { stroke-dashoffset: 2152; }
  73.12% { stroke-dashoffset: 0; }
  92.81% { stroke-dashoffset: 0; }
  95.95% { stroke-dashoffset: 2152; }
  100% { stroke-dashoffset: 2152; }
}
path.line-2 {
  stroke-dasharray: 42 47;
  stroke-dashoffset: 42;
  animation: draw-2 9613.484772127471ms ease forwards infinite;
}
@keyframes draw-2 {
  0% { stroke-dashoffset: 42; }
  73.12170158121415% { stroke-dashoffset: 42; }
  73.99% { stroke-dashoffset: 0; }
  89.66% { stroke-dashoffset: 0; }
  89.72% { stroke-dashoffset: 42; }
  100% { stroke-dashoffset: 42; }
}
path.line-3 {
  stroke-dasharray: 0 5;
  stroke-dashoffset: 0;
  animation: draw-3 9613.484772127471ms ease forwards infinite;
}
@keyframes draw-3 {
  0% { stroke-dashoffset: 0; }
  73.99486180860981% { stroke-dashoffset: 0; }
  73.99% { stroke-dashoffset: 0; }
  89.60% { stroke-dashoffset: 0; }
  89.60% { stroke-dashoffset: 0; }
  100% { stroke-dashoffset: 0; }
}
</style>
<g mask="url(#brush)">
<path d="M194,128L195,127L196,126L197,125L198,124L200,123L201,122L203,120L205,118L207,116L209,115L210,113L212,111L213,109L215,107L216,105L217,103L219,102L220,100L221,98L222,96L223,94L224,93L224,91L225,89L225,88L225,86L225,85L224,84L224,82L223,81L222,80L222,78L221,77L220,77L219,76L217,75L216,75L214,74L212,74L209,74L207,74L204,74L201,74L199,74L196,74L192,75L190,76L187,77L183,79L180,81L176,83L173,85L170,87L167,90L163,93L160,95L158,98L154,101L152,104L149,107L146,111L144,113L142,116L140,119L138,122L137,125L135,128L134,130L133,133L133,136L133,138L133,141L133,143L133,145L133,147L134,149L135,151L136,153L137,154L138,156L139,157L141,159L142,160L144,161L145,162L147,163L149,164L151,165L152,166L154,167L156,168L158,169L159,171L161,172L163,174L164,176L166,177L167,179L169,180L170,182L171,183L172,185L172,186L173,188L173,190L173,192L173,195L172,197L172,200L170,202L169,205L167,208L165,210L163,213L161,216L158,218L156,221L153,224L150,226L147,229L144,231L141,234L138,236L135,238L132,240L129,242L126,244L124,245L121,247L117,249L114,250L111,251L108,252L105,253L102,253L98,253L95,253L91,253L88,253L85,253L82,253L80,253L78,253L75,253L73,252L72,251L70,250L68,249L67,249L66,248L65,247L64,247L64,246L63,246L63,245L63,244L63,243L63,242L64,242L65,241L66,241L67,241L68,240L69,240L71,239L72,239L74,238L75,238L77,237L79,236L81,235L82,235L84,234L85,234L87,233L88,233L89,232L91,232L92,232L93,231L95,231L96,231L98,231L99,231L101,231L103,231L104,231L106,231L108,231L109,231L111,231L113,232L114,232L116,232L117,232L119,232L120,232L122,232L124,232L125,232L127,232L128,232L130,232L132,232L133,231L135,231L138,230L140,229L142,228L144,227L147,226L149,225L152,224L154,222L157,221L159,220L161,218L164,217L166,215L168,214L170,212L173,210L176,208L178,206L181,204L184,202L187,200L189,199L191,197L193,196L195,195L197,194L198,193L200,192L201,191L202,191L202,190L203,190L202,190L202,191L201,191L200,192L199,193L198,194L197,195L196,197L194,198L193,200L192,202L190,204L188,207L186,209L184,212L183,214L181,217L179,220L178,222L176,224L174,227L173,229L172,230L172,232L171,233L170,235L170,236L169,237L169,239L168,240L168,242L167,243L167,245L166,246L166,247L167,247L168,247L169,247L170,246L171,245L172,244L174,242L177,240L179,237L182,234L185,232L189,229L192,226L195,224L198,222L200,219L203,217L205,215L207,213L209,211L211,209L212,207L213,206L214,205L215,204L214,204L214,205L213,205L213,206L212,206L212,207L212,208L211,208L210,209L210,210L209,211L208,213L207,214L207,216L206,217L205,219L204,220L204,221L203,221L203,222L203,221L203,220L203,219L203,218L204,218L204,217L204,216L205,216L206,215L207,214L209,213L210,212L212,211L214,209L217,207L220,205L223,203L226,201L229,200L232,198L235,197L238,196L241,195L244,194L246,193L249,192L250,191L252,190L253,189L254,189L255,188L255,187L255,186L256,186L256,185L255,185L254,185L253,184L252,184L251,184L250,185L248,185L247,186L245,187L243,187L242,188L240,190L238,191L235,193L233,196L230,198L227,201L225,204L222,207L220,210L218,214L216,217L214,220L213,224L212,228L211,232L210,235L210,238L210,240L210,241L211,241L212,241L214,241L215,240L218,238L220,236L223,234L226,232L230,229L233,227L237,224L240,221L243,218L247,214L250,210L253,207L255,203L257,201L258,198L259,196L260,195L260,194L260,193L260,192L260,191L259,191L259,190L258,190L258,189L257,189L256,189L255,190L254,191L253,192L252,193L251,195L250,196L249,198L248,200L247,203L245,205L244,207L243,209L241,211L240,213L239,215L237,217L236,220L234,222L233,224L232,227L230,229L229,232L227,236L225,239L223,243L221,247L219,252L216,256L214,261L211,266L208,271L205,277L202,282L199,288L195,294L192,299L188,304L185,309L181,313L178,317L174,321L171,324L167,327L164,329L161,330L158,331L156,332L154,332L153,331L152,330L151,328L150,326L150,323L150,321L150,318L151,316L152,312L153,309L155,306L158,302L161,299L164,295L168,291L171,288L175,285L178,282L182,279L185,277L189,274L193,271L197,268L202,265L206,262L210,259L214,256L218,253L221,251L225,248L229,245L233,242L237,239L241,236L245,232L249,229L252,226L256,223L259,219L262,217L266,213L270,210L274,207L277,204L281,201L283,198L286,196L288,194L290,192L291,191L293,191L293,190L294,190L294,189L294,188L295,187L296,186L297,186L298,186L299,186L299,187L298,187L297,187L296,187L295,188L294,188L294,189" stroke-width="10" stroke-linecap="round" stroke-linejoin="round" stroke="#000" fill="none" class="line-0">

</path><path d="M341,203L343,203L343,202L344,202L344,201L344,200L344,199L344,197L344,196L344,195L343,193L343,192L342,191L341,190L340,189L339,189L337,188L336,188L335,188L333,188L332,189L330,190L328,191L326,193L324,195L322,197L320,199L318,201L316,204L314,207L311,210L309,213L307,215L306,218L304,221L303,224L302,226L300,229L300,231L299,234L298,236L297,238L296,240L296,241L296,242L296,243L297,243L298,243L299,243L300,243L301,243L302,242L303,242L305,241L306,239L308,238L309,236L311,234L313,232L315,230L317,228L320,225L322,222L325,218L328,214L331,209L335,205L338,200L342,195L345,190L349,184L352,179L356,173L360,167L364,161L368,155L372,149L376,144L379,139L381,135L383,132L385,129L386,127L387,125L388,123L389,122L389,121L390,121L390,120L389,121L388,121L388,122L387,123L386,124L385,125L384,127L383,128L382,129L381,131L380,133L378,135L375,138L373,142L370,145L367,149L364,152L362,156L359,159L357,163L354,166L351,171L348,174L345,179L342,183L339,187L337,191L335,195L332,198L330,202L328,206L326,209L324,213L323,218L321,222L320,226L319,229L319,232L319,235L319,238L319,241L320,242L321,244L322,245L323,245L325,245L327,245L329,244L332,242L335,239L338,236L342,232L345,229L348,226L352,223L354,220L357,218L359,216L361,213L363,211L365,209L367,206L369,204L370,202L371,201L372,200L373,199L372,199L372,200L371,200L371,199L370,199L369,199L368,199L367,200L366,200L366,201L365,202L365,203L364,204L363,206L362,208L361,211L359,215L358,218L356,221L355,224L354,227L353,229L352,232L351,234L350,236L350,238L349,240L349,239L349,238L349,237L350,235L351,233L352,231L353,228L355,225L358,222L362,217L366,212L370,208L375,204L379,202L382,201L386,200L389,199L393,198L397,197L400,197L403,196L407,196L409,195L412,195L414,195L415,196L416,196L417,197L418,197L418,198L419,198L420,197L420,196L420,195L419,195L419,194L418,193L417,193L416,192L415,192L414,192L412,192L411,192L409,192L408,193L406,193L404,195L402,196L400,198L398,200L395,202L393,204L390,207L387,209L385,212L382,216L380,219L378,222L376,225L374,228L373,231L372,234L372,236L372,237L372,238L373,239L374,239L376,240L377,240L379,240L381,241L383,241L384,241L387,241L389,240L391,239L394,237L397,234L399,231L402,228L405,225L408,221L411,218L413,215L415,212L417,209L419,207L420,205L422,203L423,201L424,199L425,198L425,197L426,196L425,196L424,197L423,198L422,199L421,200L420,201L419,202L417,204L416,205L414,207L413,209L411,211L409,214L407,217L405,221L403,224L402,227L401,230L400,232L400,235L400,237L400,238L401,239L402,240L403,240L404,240L406,240L408,239L410,237L412,235L415,232L417,229L420,226L423,223L426,220L429,217L432,214L434,212L437,209L439,207L441,205L443,203L444,202L445,200L446,199L447,199L447,198L446,198L446,199L445,200L444,202L442,204L441,207L439,211L436,216L434,220L432,224L431,227L430,230L429,232L428,234L428,235L428,236L428,237L428,238L429,239L430,240L431,240L432,239L433,238L435,237L436,235L438,233L439,231L442,228L444,226L446,223L449,219L452,216L454,212L457,209L460,206L462,205L464,203L465,202L466,200L468,199L469,199L469,198L470,198L470,197L470,198L470,199L469,200L469,201L468,202L468,204L467,206L466,209L465,212L463,216L462,220L460,225L459,228L458,231L458,233L458,235L458,236L458,237L459,238L460,238L461,238L463,238L464,238L465,237L466,236L468,235L469,233L471,231L473,229L475,226L477,224L480,221L482,217L485,214L488,210L491,207L493,203L495,201L497,199L499,197L501,196L502,195L504,194L505,193L506,192L507,191L508,190L509,190L510,189L510,188L510,189L509,189L509,190L508,190L508,191L507,192L506,193L506,194L505,195L504,197L502,198L501,200L499,202L498,205L496,208L494,210L492,213L490,216L489,219L487,221L486,224L486,226L485,228L485,230L485,231L485,233L485,234L485,235L486,236L487,237L488,237L489,238L491,237L493,237L496,235L498,233L501,230L503,228L506,225L509,222L511,219L514,216L517,213L520,209L523,206L526,203L529,200L532,198L534,196L535,194L537,192L538,191L539,191L539,190L540,190L539,190L539,191L538,191L538,192L537,192L536,193L535,194L535,195L534,196L533,197L532,198L531,199L530,200L529,201L528,203L527,205L526,207L525,210L524,213L523,216L521,220L520,223L518,226L517,228L516,230L515,232L515,233L514,233L514,232L514,231L515,230L515,229L515,228L516,227L517,225L518,224L520,221L522,218L525,214L530,209L534,204L539,200L544,195L549,191L553,188L557,186L560,185L563,184L566,183L568,183L570,183L571,184L572,185L572,187L572,189L572,191L571,193L569,196L568,199L565,202L563,206L560,210L558,213L556,217L554,220L552,223L550,225L549,227L549,228L548,230L547,231L547,233L546,234L546,235L546,236L547,236L548,236L549,236L550,235L552,233L555,231L557,229L560,226L564,223L568,220L572,217L577,213L581,209L585,206L590,202L595,199L599,196L603,193L607,190L610,187L613,185L615,183L618,180L620,178L622,176L624,173L626,171L627,169L627,168L627,167L627,166L626,166L624,166L623,167L621,168L619,169L617,170L615,172L613,174L610,175L608,178L605,180L602,183L599,187L596,192L592,197L588,202L585,207L582,213L579,218L576,222L575,226L573,229L573,232L572,234L572,236L573,237L574,237L575,238L577,238L579,238L581,237L583,236L586,234L589,233L592,230L595,228L598,225L601,221L605,217L608,213L611,209L614,204L616,200L618,197L621,194L622,191L625,188L627,185L629,183L630,180L632,178L633,177L633,176L634,176L633,176L633,177L632,178L631,179L631,180L630,181L629,182L628,183L627,184L627,186L626,187L625,189L623,190L622,192L621,194L620,196L619,198L617,200L616,203L615,205L613,208L612,210L610,213L609,216L607,219L606,222L602,229L600,232L598,237L595,241L592,246L589,252L585,258L582,264L578,271L574,277L571,283L567,290L564,295L561,301L558,306L555,310L553,315L550,319L547,323L544,327L542,330L539,333L536,335L534,337L532,338L530,338L528,338L527,338L525,338L524,338L523,337L522,337L522,335L521,334L521,331L521,329L521,326L521,323L522,320L523,317L525,314L527,311L529,308L532,305L535,303L538,300L542,296L547,292L552,288L557,284L562,279L568,275L574,270L579,265L584,261L590,256L595,252L599,248L604,243L609,240L614,236L619,232L624,228L629,225L633,222L637,219L640,217L644,215L646,213L648,211L650,210L652,209L654,208L655,207L657,206L657,205L658,204L659,204L659,203L659,202" stroke-width="10" stroke-linecap="round" stroke-linejoin="round" stroke="#000" fill="none" class="line-1">

</path><path d="M508,158L508,157L508,156L507,155L507,154L507,153L507,152L508,151L508,150L509,149L510,149L511,149L512,149L513,149L514,150L515,150L516,151L517,151L518,152L519,153L520,154L521,154L521,155L522,156L523,157L524,157L524,158L525,158L524,159L523,159L522,159L522,160L521,160L520,160L519,160L518,159L517,159L517,158" stroke-width="10" stroke-linecap="round" stroke-linejoin="round" stroke="#000" fill="none" class="line-2">

</path><path d="M509 158L509 158" stroke-width="10" stroke-linecap="round" stroke-linejoin="round" stroke="#000" fill="none" class="line-3">

</path>
</g><mask id="brush">
<rect x="0" y="0" width="100%" height="100%" fill="black">

</rect><path d="M193.99,127.99L197.16,123.14L199.34,121.73L199.87,120.87L201.67,118.67L203.46,116.46L205.29,114.24L207.55,112.83L207.40,111.65L209.69,108.77L209.95,107.41L212.34,104.42L212.48,103.24L213.66,100.77L216.66,98.49L215.93,97.96L216.75,95.88L217.59,93.79L218.48,91.65L219.84,90.38L218.67,90.75L219.97,86.78L219.36,88.00L219.23,86.00L219.65,86.21L219.27,86.98L218.44,83.26L218.64,85.36L217.04,83.13L216.19,79.32L217.78,82.10L218.65,82.94L214.44,80.71L214.34,81.01L215.68,81.62L211.30,80.11L212.00,80.79L209.00,80.79L207.00,80.83L204.00,80.80L201.00,80.78L199.00,80.80L196.05,80.77L193.65,81.44L192.98,81.97L189.11,83.31L185.91,84.81L183.57,86.37L178.83,88.65L176.49,90.24L173.50,92.20L171.37,94.38L166.61,97.82L163.47,99.89L162.94,101.43L157.61,105.63L156.90,107.29L153.15,111.14L150.59,114.45L148.13,117.09L146.86,119.24L144.87,122.25L142.91,125.21L142.59,126.92L139.94,131.29L139.37,132.68L138.74,134.81L139.07,136.00L139.14,138.00L139.17,141.00L139.23,143.00L139.28,145.00L139.27,146.70L139.71,146.15L140.75,148.13L141.72,150.02L141.67,149.48L143.79,152.98L143.66,152.34L145.66,154.34L146.60,155.24L147.07,155.10L149.65,157.20L150.01,156.98L152.02,157.96L154.12,159.01L156.72,161.12L157.05,160.90L159.06,161.89L161.68,163.49L164.53,167.32L164.17,165.92L167.91,169.24L169.53,172.31L169.69,171.46L172.55,175.30L172.71,174.44L176.12,178.81L175.98,178.18L178.30,182.22L178.90,185.67L179.33,185.20L180.00,190.00L180.02,192.00L179.90,195.33L178.32,199.79L178.34,201.44L175.07,206.60L175.49,207.23L172.63,211.79L169.81,214.77L168.58,216.72L166.38,219.82L161.79,223.33L161.41,224.64L157.52,228.55L153.56,231.29L151.42,233.46L147.49,236.19L145.35,238.38L141.42,241.13L138.41,243.12L135.41,245.11L132.40,247.10L129.39,249.10L126.77,250.53L124.42,252.14L119.71,254.44L115.93,255.79L112.94,256.81L109.94,257.83L106.85,258.87L102.00,259.19L98.00,259.15L95.00,259.17L91.00,259.13L88.00,259.16L85.00,259.19L82.00,259.21L80.00,259.27L78.00,259.32L74.70,259.27L70.06,257.65L67.54,255.61L67.10,255.79L65.40,254.90L65.64,254.99L61.34,252.66L61.68,252.26L57.32,247.00L64.00,252.71L56.25,246.00L56.22,245.00L56.18,244.00L56.15,243.00L63.00,235.12L62.57,235.68L61.53,235.50L66.00,234.03L65.55,234.60L64.49,234.43L68.67,233.03L68.18,232.61L71.67,232.00L71.17,231.59L74.66,230.98L73.82,230.65L75.82,229.65L78.16,228.57L81.66,227.96L81.15,227.55L84.66,226.94L84.14,226.53L86.52,226.45L85.41,226.30L91.00,224.81L90.51,225.41L89.39,225.27L95.00,223.77L96.00,223.75L98.00,223.75L99.00,223.73L101.00,223.73L103.00,223.73L104.00,223.71L106.00,223.71L108.00,223.71L109.00,223.70L111.34,223.78L115.92,225.40L114.00,224.69L116.00,224.70L117.00,224.68L119.00,224.68L120.00,224.66L122.00,224.67L124.00,224.67L125.00,224.65L127.00,224.66L128.00,224.64L130.00,224.65L130.48,225.28L129.32,225.16L134.88,223.66L135.69,223.11L136.75,222.51L138.76,221.52L140.77,220.52L144.73,219.21L145.81,218.60L149.47,217.46L149.30,216.83L154.78,214.37L155.78,213.81L156.36,212.89L161.53,210.61L161.22,210.06L164.82,207.89L165.15,207.11L169.23,204.34L172.25,202.42L173.27,201.23L177.31,198.46L180.34,196.51L183.38,194.56L185.97,193.19L186.44,192.29L190.05,190.09L192.03,189.07L193.93,188.11L193.35,188.20L196.90,186.05L197.62,185.64L195.20,191.00L202.00,183.17L196.14,190.00L196.34,188.36L196.92,186.81L197.86,185.45L199.10,184.35L200.57,183.58L202.17,183.19L203.83,183.19L205.43,183.58L206.90,184.35L208.14,185.45L209.08,186.81L209.66,188.36L209.86,190.00L208.86,190.00L202.00,197.89L202.43,197.33L204.92,196.92L203.94,197.94L202.96,198.96L202.04,199.88L201.67,200.78L197.78,203.67L199.30,203.15L198.23,205.24L194.98,208.94L193.74,210.86L190.89,213.85L189.67,215.77L189.10,217.06L186.62,220.74L184.56,223.70L183.93,225.09L180.75,228.72L179.52,230.67L178.89,232.07L177.31,233.35L178.15,233.39L175.85,237.69L176.15,237.71L176.23,237.41L174.43,240.43L175.29,240.42L173.48,243.45L174.33,243.43L172.51,246.48L173.37,246.44L171.55,249.50L166.00,239.97L167.00,239.95L168.00,239.92L167.53,240.50L164.96,240.96L165.94,239.94L166.93,238.93L168.98,236.94L172.96,234.31L173.26,233.14L177.24,229.20L181.29,226.43L185.12,223.84L187.52,221.49L191.49,218.74L194.37,216.89L194.91,215.39L199.51,211.81L200.56,210.56L202.54,208.54L204.52,206.52L206.44,204.59L206.34,204.05L208.44,201.44L209.41,200.41L210.37,199.37L211.61,198.40L213.05,197.75L214.61,197.47L216.18,197.56L217.69,198.03L219.04,198.85L220.15,199.96L220.97,201.31L221.44,202.82L221.53,204.40L221.25,205.95L220.60,207.39L219.63,208.63L220.54,204.00L214.00,211.58L219.62,205.00L213.00,212.66L218.69,206.00L218.73,207.00L212.00,214.76L212.41,214.22L215.42,212.42L216.28,211.42L213.94,215.79L214.11,216.18L212.50,217.47L213.36,217.44L211.01,221.85L211.18,222.22L209.56,223.51L204.00,228.04L210.07,221.00L203.00,229.10L201.30,228.89L199.70,228.28L198.29,227.31L197.16,226.03L196.37,224.52L195.96,222.85L195.96,221.14L196.37,219.48L197.16,217.97L198.30,216.69L199.70,215.72L201.30,215.11L203.00,214.90L195.90,221.00L195.88,220.00L195.86,219.00L203.00,210.83L196.81,218.00L196.79,217.00L204.00,208.77L203.50,209.37L200.86,209.86L201.94,208.78L205.65,206.56L204.94,206.77L208.65,204.56L208.91,203.87L213.06,201.08L216.11,199.17L219.17,197.25L222.27,195.29L226.80,193.59L228.33,192.39L232.89,190.66L235.89,189.68L238.90,188.71L241.90,187.73L243.04,187.06L246.63,185.89L245.38,186.23L248.92,184.09L249.64,183.67L252.60,182.82L249.61,184.60L248.17,187.00L255.00,179.14L249.11,186.00L256.00,191.92L255.00,191.95L252.55,191.38L249.50,189.56L252.00,191.03L252.46,190.46L253.54,190.62L249.47,191.49L251.94,191.10L247.85,193.44L244.48,193.51L247.05,193.05L244.93,195.09L241.18,197.35L239.03,198.67L238.60,199.98L233.80,203.66L231.73,205.70L230.48,207.69L226.60,211.57L225.37,213.57L223.65,216.83L221.23,220.49L219.26,223.36L219.01,225.50L217.95,229.49L216.90,233.48L215.81,236.83L216.14,238.00L216.20,240.00L210.00,234.75L211.00,234.70L212.00,234.66L212.68,235.15L210.46,235.43L214.43,232.69L215.48,231.44L219.46,228.69L222.48,226.72L226.30,224.07L229.59,221.88L233.40,219.21L235.80,216.80L238.83,213.83L242.98,209.99L245.53,206.64L249.00,203.12L250.08,200.44L252.86,197.24L252.59,196.19L253.87,193.33L255.35,192.07L254.07,194.00L254.02,193.00L253.96,192.00L260.00,197.09L252.85,191.00L259.00,196.20L251.75,190.00L258.00,195.29L257.00,195.34L257.32,194.84L259.55,194.55L258.59,195.59L257.62,196.62L256.71,197.56L256.85,198.04L254.77,200.61L254.97,200.99L254.00,202.99L253.16,205.39L249.78,209.63L249.99,209.99L248.94,212.09L245.81,215.66L246.02,216.01L244.98,218.11L241.94,221.49L242.20,222.40L238.81,226.65L239.02,227.00L238.18,229.39L234.90,233.46L235.32,234.12L232.82,238.92L230.38,242.58L228.66,245.83L226.56,249.78L224.54,254.27L220.71,259.47L219.28,263.12L215.70,268.82L212.55,273.73L209.48,279.24L206.21,284.52L203.19,290.10L198.68,296.45L195.78,301.28L191.39,306.70L188.70,311.26L184.09,316.08L181.56,319.68L177.15,324.15L174.24,327.25L169.79,330.72L166.61,333.00L162.56,334.67L159.60,335.79L158.07,336.69L152.90,336.84L149.19,334.81L148.08,333.80L146.02,330.49L144.87,328.27L144.27,323.00L144.18,321.00L144.19,317.72L145.67,313.37L146.26,310.56L147.38,307.07L150.04,302.69L153.34,298.50L156.89,294.91L159.45,291.58L164.11,287.11L167.11,284.10L171.73,280.65L174.15,278.14L178.76,274.68L181.97,272.46L185.76,269.68L189.80,266.73L193.83,263.76L199.35,260.59L202.92,257.90L206.93,254.91L210.94,251.92L214.95,248.93L218.13,246.69L221.91,243.88L225.92,240.89L229.93,237.91L233.94,234.92L237.94,231.94L241.48,228.47L246.01,225.02L248.45,222.44L252.98,219.06L255.15,216.00L259.25,212.92L262.69,209.68L267.29,206.38L271.41,203.56L274.07,201.07L278.65,197.99L280.05,195.90L284.10,193.18L285.74,191.74L287.90,189.90L289.57,188.74L290.34,191.00L293.00,187.43L291.53,190.00L291.64,189.00L291.95,187.54L293.55,185.55L295.07,184.52L297.00,184.28L298.00,184.43L300.41,186.00L299.00,188.24L298.00,188.07L297.00,187.89L296.14,187.64L294.01,189.00L294.00,189.00L293.99,189.00L295.86,186.36L297.00,186.11L298.00,185.93L299.00,185.76L297.59,186.00L298.00,187.57L297.00,187.72L296.93,187.48L296.45,188.45L296.05,188.46L296.36,189.00L296.47,190.00L293.00,192.57L295.66,191.00L292.43,193.26L292.10,194.10L290.26,196.26L287.90,198.82L285.95,200.10L283.35,204.01L279.93,206.93L276.59,210.44L272.71,213.62L269.31,216.32L264.75,221.08L262.85,222.00L259.02,226.94L255.55,229.56L251.99,232.98L248.52,235.53L244.06,240.06L240.06,243.08L236.07,246.09L232.08,249.11L228.09,252.12L223.87,255.31L221.05,257.07L217.06,260.08L213.07,263.09L209.08,266.10L204.65,269.41L200.17,272.24L196.20,275.27L192.24,278.32L188.03,281.54L185.24,283.32L181.85,285.86L178.27,289.35L174.89,291.90L171.89,294.89L168.55,298.42L165.11,303.09L162.66,305.50L159.96,309.31L158.62,310.93L157.74,313.44L156.33,318.63L155.81,318.28L155.82,321.00L155.73,323.00L155.13,323.73L155.98,325.51L155.92,326.20L156.81,327.19L155.10,327.16L153.93,327.31L156.40,326.21L159.44,325.33L161.39,325.00L164.21,323.28L167.76,320.75L170.85,317.85L174.44,314.32L177.91,309.92L181.30,306.74L184.61,301.30L188.22,296.72L191.32,291.55L194.81,285.90L197.79,279.48L200.52,274.76L203.45,268.27L206.30,263.18L208.72,258.88L211.29,252.53L213.46,249.73L215.44,244.22L217.34,240.17L219.62,235.42L221.18,233.08L222.68,229.88L225.10,224.54L225.82,224.61L226.98,221.00L229.19,217.35L229.80,217.60L232.06,212.51L233.02,211.89L233.98,209.99L236.19,206.34L237.06,205.91L238.01,204.01L240.22,200.37L240.84,200.61L242.00,197.01L243.03,195.01L245.23,191.39L245.15,191.96L247.29,188.44L248.38,187.38L249.41,186.41L250.45,185.45L254.68,183.16L257.00,182.66L258.00,182.71L264.25,190.00L259.00,183.80L265.15,191.00L260.00,184.91L266.04,192.00L265.98,193.00L265.93,194.00L264.65,197.93L264.13,198.67L263.41,199.81L261.14,204.76L259.92,205.56L257.00,210.88L254.47,213.36L251.02,218.01L247.17,222.17L244.20,225.20L240.60,228.79L236.41,232.12L233.70,233.93L229.52,237.28L226.54,239.31L224.52,240.56L221.57,243.31L219.54,244.57L215.32,246.85L212.00,247.34L211.00,247.30L210.00,247.25L203.80,240.00L203.86,238.00L204.19,233.17L205.10,230.52L206.05,226.51L206.99,222.50L208.74,216.64L210.77,213.51L212.35,211.17L214.63,206.43L217.40,202.43L219.52,200.31L222.27,196.30L226.20,192.34L227.40,192.02L230.97,187.33L234.82,184.65L235.07,184.91L236.95,182.95L241.52,180.49L242.15,180.56L242.06,180.90L246.53,178.51L246.46,179.38L249.54,177.54L252.00,176.97L256.50,178.44L255.45,178.62L255.00,178.05L256.00,178.08L262.89,186.00L255.00,192.86L261.83,187.00L260.39,191.40L255.40,195.18L256.36,194.33L255.08,195.91L254.62,195.77L251.37,198.11L248.96,198.94L246.10,200.27L243.10,201.29L240.11,202.32L237.11,203.34L235.67,203.61L231.20,206.41L229.73,206.71L226.83,208.75L223.89,210.83L220.94,212.92L219.09,214.13L215.35,217.44L215.06,217.23L212.35,219.44L212.06,219.22L211.14,220.14L206.50,222.63L204.00,223.23L211.21,217.00L211.19,218.00L203.00,225.17L210.14,219.00L210.12,220.00L210.10,221.00L203.00,229.10L201.30,228.89L199.70,228.28L198.30,227.31L197.16,226.03L196.37,224.52L195.96,222.86L195.96,221.15L196.37,219.48L197.16,217.97L198.29,216.69L199.70,215.72L201.30,215.11L203.00,214.90L195.93,221.00L204.00,213.96L198.44,216.49L198.82,215.78L200.99,212.15L200.64,214.56L201.50,210.53L201.89,209.82L204.06,206.21L203.72,208.58L204.58,205.58L209.59,201.78L212.00,201.24L205.27,207.00L205.31,206.00L213.00,199.34L206.38,205.00L214.00,198.42L207.46,204.00L210.37,199.37L211.61,198.40L213.05,197.75L214.60,197.47L216.18,197.56L217.69,198.03L219.04,198.85L220.15,199.96L220.97,201.31L221.44,202.82L221.53,204.39L221.25,205.95L220.60,207.39L219.63,208.63L218.59,209.59L217.56,210.56L217.66,209.95L215.56,213.41L213.48,215.48L211.46,217.46L209.44,219.44L206.49,222.19L205.09,222.61L201.63,227.11L198.51,229.26L196.48,230.51L192.88,234.16L188.71,237.57L186.76,238.80L184.74,240.86L181.04,245.69L179.02,247.06L177.07,249.07L176.06,250.06L175.04,251.04L170.47,253.50L168.00,254.08L167.00,254.05L166.00,254.03L160.45,242.50L160.63,243.56L161.49,239.52L161.67,240.57L162.52,236.55L162.71,237.58L163.57,233.57L163.77,234.59L163.85,232.29L166.15,228.31L165.85,230.61L166.69,226.65L167.11,225.93L168.48,223.33L171.25,219.28L172.07,218.91L173.44,216.30L175.38,213.26L176.90,210.94L178.33,208.23L181.11,204.15L182.26,203.14L185.02,199.06L185.77,198.76L186.70,196.85L190.22,192.33L190.33,193.22L191.96,190.12L193.04,189.04L194.06,188.06L195.08,187.08L199.57,184.67L202.00,184.11L195.14,190.00L196.14,190.00L196.34,188.36L196.92,186.81L197.86,185.45L199.10,184.35L200.57,183.58L202.17,183.19L203.83,183.19L205.43,183.58L206.90,184.35L208.14,185.45L209.08,186.81L209.66,188.36L209.86,190.00L202.00,196.83L208.80,191.00L204.38,196.36L203.10,197.95L202.65,197.80L200.07,199.89L197.97,200.93L195.95,201.91L195.56,201.71L192.03,204.81L190.62,205.44L187.66,207.49L184.69,209.54L182.73,210.77L179.75,213.58L176.77,215.66L174.85,216.89L171.18,220.11L170.78,219.94L166.47,223.39L165.64,223.11L162.22,226.19L159.22,227.63L158.70,227.17L154.53,230.54L152.19,231.40L149.27,232.79L147.23,233.48L145.24,234.48L143.25,235.49L140.31,236.89L135.12,238.34L136.68,236.84L133.52,238.72L130.00,239.35L128.00,239.36L127.00,239.34L125.00,239.35L124.00,239.33L122.00,239.33L120.00,239.34L119.00,239.32L117.00,239.32L116.00,239.30L114.00,239.31L110.08,238.60L110.66,238.22L109.00,238.30L108.00,238.29L106.00,238.29L104.00,238.29L103.00,238.27L101.00,238.27L99.00,238.27L98.00,238.25L96.00,238.25L95.00,238.23L96.61,236.73L93.49,238.59L91.00,239.19L92.59,237.70L89.48,239.55L89.86,239.47L85.34,241.06L86.85,240.45L82.34,242.04L83.84,241.43L82.18,242.35L80.18,243.35L75.34,245.02L76.83,244.41L72.33,246.00L73.82,245.39L69.33,246.97L71.51,245.57L68.45,247.40L66.00,247.97L68.47,246.50L65.43,248.32L63.00,248.88L69.85,243.00L69.82,244.00L69.78,245.00L69.75,246.00L64.00,239.29L70.68,247.00L68.32,241.74L70.66,243.34L68.36,243.01L70.60,243.10L72.90,244.21L76.46,246.39L75.94,246.35L75.30,246.73L78.00,246.68L80.00,246.73L82.00,246.79L85.00,246.81L88.00,246.84L91.00,246.87L95.00,246.83L98.00,246.85L102.00,246.81L103.15,247.13L106.06,246.17L109.06,245.19L112.07,244.21L114.29,243.56L117.58,241.86L121.23,239.47L122.61,238.90L125.60,236.90L128.59,234.89L131.59,232.88L134.58,230.87L136.65,229.62L140.51,225.81L142.58,224.54L146.44,220.71L148.48,219.45L150.59,217.36L154.21,212.67L155.62,212.18L157.42,209.28L160.19,205.23L161.37,204.21L162.51,202.77L164.93,197.40L165.66,198.56L165.68,194.21L166.10,194.67L165.98,192.00L166.00,190.00L166.67,190.80L165.10,186.33L165.70,187.78L166.02,187.82L163.88,185.19L165.29,185.56L161.45,182.70L162.31,182.54L158.47,179.69L158.09,178.76L157.83,178.08L153.47,174.68L154.32,174.51L152.94,174.11L150.95,173.10L147.28,170.88L147.88,170.99L145.98,170.04L143.99,169.02L140.35,166.80L140.93,166.90L137.40,164.76L136.34,163.66L134.34,161.66L132.21,159.02L132.33,158.52L130.28,155.98L129.25,153.87L128.29,151.85L126.73,147.30L126.72,145.00L126.77,143.00L126.83,141.00L126.86,138.00L126.93,136.00L127.26,131.19L128.63,127.32L130.06,124.71L131.41,123.08L133.09,118.79L135.13,115.75L137.14,112.76L139.87,108.91L141.41,107.55L144.85,102.86L147.10,100.71L150.39,96.37L153.06,94.57L156.53,90.11L159.39,88.18L162.63,85.62L166.50,81.80L169.51,79.76L173.17,77.35L176.43,75.63L180.09,73.19L184.89,70.69L187.02,70.03L190.35,68.56L195.95,67.23L199.00,67.20L201.00,67.22L204.00,67.20L207.00,67.17L209.00,67.21L212.00,67.21L216.70,67.89L216.32,68.38L219.66,68.99L223.56,71.29L221.35,71.06L224.22,71.90L227.81,76.68L226.96,76.87L227.36,76.64L229.56,80.74L228.73,81.02L230.35,83.79L230.77,86.00L230.64,88.00L230.03,91.22L229.33,91.25L228.16,95.62L227.52,96.35L226.41,98.21L225.25,100.12L224.07,102.04L221.34,105.51L220.34,105.23L219.52,106.76L217.66,109.58L216.05,110.59L214.31,113.23L212.60,114.35L210.45,117.17L208.71,117.76L206.54,119.54L204.33,121.33L202.13,123.13L200.66,124.27L198.84,124.86L194.01,128.01Z" fill="white">

</path><path d="M340.99,202.99L343.29,200.57L342.96,200.00L342.85,199.00L342.64,197.00L342.52,196.00L342.43,195.08L341.34,193.73L341.22,192.40L340.50,192.50L339.39,191.61L338.78,190.94L338.88,191.54L335.88,190.54L336.00,190.93L335.00,191.05L333.68,190.99L334.38,191.46L331.64,193.27L329.79,194.43L328.92,195.92L327.09,198.09L325.25,200.25L323.40,202.40L321.56,204.53L320.33,206.89L318.46,210.00L314.91,213.88L313.68,216.15L311.23,218.85L311.57,219.91L308.99,224.26L308.74,225.92L307.49,228.75L305.30,231.84L306.21,231.10L304.92,235.98L303.63,238.82L302.68,240.84L301.79,242.56L302.43,241.00L302.48,242.00L296.00,236.48L297.00,236.44L298.00,236.40L299.00,236.36L300.00,236.32L299.61,236.86L298.62,236.65L302.68,235.29L301.35,235.52L300.51,235.34L304.33,232.50L302.94,232.85L306.17,229.17L308.18,227.18L310.19,225.19L312.20,223.20L315.28,220.32L316.52,218.35L319.91,214.18L323.05,210.29L325.98,205.94L330.96,201.02L333.32,197.18L337.94,191.76L340.65,187.39L345.07,181.38L348.00,176.60L352.33,170.56L356.51,164.67L360.65,158.77L364.76,152.84L368.85,146.90L373.02,141.62L375.65,136.99L377.35,133.17L379.44,129.63L381.29,126.53L381.87,124.94L382.74,122.87L383.66,120.74L385.02,119.49L389.00,115.90L384.82,121.00L390.00,114.74L391.26,114.90L392.44,115.35L393.49,116.07L394.33,117.01L394.91,118.14L395.22,119.37L395.22,120.63L394.91,121.86L394.33,122.99L393.49,123.93L392.44,124.65L391.26,125.10L390.00,125.26L391.64,125.18L393.35,121.00L392.96,123.12L390.90,126.90L389.96,127.96L389.07,128.94L389.10,129.65L387.13,132.13L386.24,133.10L386.35,133.68L385.35,135.79L382.31,139.31L379.32,142.19L378.27,144.74L374.18,149.17L371.62,152.48L368.13,156.00L367.06,158.63L363.08,162.95L362.01,165.61L358.02,169.96L355.65,173.83L351.89,177.83L349.53,181.72L346.20,186.15L343.18,190.11L341.68,193.34L339.65,197.42L335.79,201.67L334.74,204.37L332.75,208.38L330.49,211.98L328.84,215.36L328.20,219.09L325.78,224.36L325.21,227.30L324.19,230.64L324.54,232.00L324.62,235.00L324.69,238.00L324.27,239.81L324.18,237.95L326.23,241.28L324.99,240.26L323.00,238.96L325.00,238.90L326.71,238.90L326.21,238.44L328.54,236.85L330.67,234.67L333.71,231.71L337.88,227.88L340.90,224.90L343.93,221.92L348.53,218.55L349.38,216.72L353.80,213.24L354.88,211.91L356.17,209.75L358.84,206.84L360.78,204.81L362.06,202.68L364.69,199.83L364.63,199.20L366.66,196.66L367.62,195.62L368.58,194.58L369.76,193.65L371.14,193.03L372.62,192.76L374.13,192.85L375.57,193.30L376.86,194.08L377.92,195.14L378.70,196.43L379.15,197.87L379.24,199.38L378.97,200.86L378.35,202.24L377.42,203.42L378.25,199.00L372.00,206.30L364.66,200.00L371.00,205.39L370.00,205.43L369.00,205.48L369.35,204.96L370.28,205.20L372.60,200.00L372.07,202.38L370.30,205.34L371.14,204.39L368.84,208.69L369.06,209.03L368.08,211.03L367.41,213.15L364.90,217.94L364.21,220.13L361.45,224.56L361.17,226.06L360.16,229.06L358.85,231.91L358.18,234.07L356.86,236.93L355.96,238.63L356.55,238.31L355.65,240.00L355.46,241.59L354.89,243.09L353.98,244.41L352.78,245.47L351.36,246.22L349.80,246.60L348.20,246.60L346.64,246.22L345.22,245.47L344.02,244.41L343.11,243.09L342.54,241.59L342.35,240.00L342.34,239.00L342.30,238.00L342.34,236.68L343.96,231.98L344.94,229.97L345.92,227.97L346.62,225.81L349.45,221.27L353.36,217.37L357.24,213.19L361.54,208.43L366.09,204.09L371.74,199.89L376.65,197.28L380.30,195.91L384.69,194.76L387.27,193.80L391.67,192.66L395.70,191.64L399.91,191.41L401.30,190.61L406.73,190.39L406.69,189.78L412.00,189.18L415.22,189.60L417.99,191.26L417.25,190.49L420.05,192.17L424.15,197.00L418.00,191.80L417.71,192.29L415.00,193.85L413.65,196.00L420.00,201.39L412.56,195.00L413.07,195.34L414.74,198.18L415.64,199.01L412.69,197.24L415.00,198.65L414.00,198.69L412.00,198.72L411.00,198.75L410.40,198.20L411.41,198.40L407.42,199.25L408.73,199.89L405.15,202.05L404.82,202.82L402.79,204.83L398.75,207.59L397.75,208.75L394.64,211.68L390.76,214.30L390.40,215.60L387.03,219.77L385.21,222.47L383.19,225.46L381.17,228.45L379.19,231.39L378.90,232.97L377.93,235.87L378.29,236.00L378.33,237.00L377.83,236.68L376.22,233.90L374.31,232.60L378.60,234.10L377.00,233.45L379.31,233.48L383.65,235.01L383.00,234.35L384.00,234.31L386.68,234.40L386.00,234.01L387.99,232.99L390.29,231.48L392.37,229.40L393.62,227.39L397.49,223.49L400.55,220.57L403.12,217.33L406.71,213.75L407.97,211.65L409.97,208.65L411.99,205.63L414.64,202.78L414.56,202.17L417.57,198.71L417.42,198.21L418.43,196.10L419.97,194.83L419.16,195.68L419.56,196.00L419.74,194.46L420.30,193.01L421.18,191.73L422.34,190.70L423.72,189.98L425.22,189.60L426.78,189.60L428.28,189.98L429.66,190.70L430.82,191.73L431.70,193.01L432.26,194.46L432.44,196.00L426.33,201.88L428.59,201.59L427.62,202.62L426.65,203.65L425.68,204.68L424.71,205.71L423.74,206.74L421.73,208.73L420.76,209.76L418.82,211.67L418.97,212.11L415.78,215.74L414.55,217.70L412.50,220.66L410.77,223.89L408.37,227.51L408.09,229.03L407.08,232.04L405.84,234.58L406.46,235.00L406.50,237.00L405.98,236.65L405.66,234.34L405.31,234.74L403.00,233.33L404.00,233.30L405.68,233.34L404.89,233.02L405.23,232.23L407.24,230.24L410.32,227.35L411.57,225.35L415.45,221.45L418.52,218.52L421.59,215.59L424.64,212.64L427.69,209.69L429.66,207.66L432.71,204.71L434.68,202.68L436.65,200.65L438.62,198.62L439.52,197.67L439.43,197.10L442.82,193.96L440.60,199.00L447.00,204.44L452.48,198.00L451.97,200.35L449.71,204.56L449.84,205.04L446.84,208.40L447.24,209.09L444.76,213.88L441.24,219.14L439.38,222.69L437.32,226.65L436.67,228.89L435.70,231.91L434.44,234.72L433.56,236.46L434.19,235.00L434.24,236.00L434.29,237.00L433.79,236.69L433.52,234.48L433.22,234.89L429.66,234.07L427.38,234.38L428.44,233.29L431.45,231.68L430.13,231.94L433.24,228.40L433.11,227.93L437.38,223.38L439.36,221.39L440.60,219.40L443.98,215.22L447.55,211.70L448.60,209.19L452.73,204.73L455.85,201.71L459.21,199.64L459.69,198.69L460.59,197.73L461.00,196.66L465.49,193.32L462.68,199.00L469.00,191.64L463.59,198.00L470.00,190.55L471.54,190.74L473.00,191.29L474.28,192.17L475.31,193.34L476.03,194.71L476.40,196.22L476.40,197.78L476.03,199.29L475.31,200.67L474.28,201.83L473.00,202.71L471.54,203.26L470.00,203.45L476.45,198.00L475.94,200.34L474.19,203.27L475.02,202.36L473.25,205.31L474.58,204.31L472.98,208.98L472.32,211.11L471.29,214.11L468.81,218.87L468.19,221.56L465.70,227.28L464.84,229.95L463.88,232.85L464.24,233.00L464.29,235.00L464.34,236.00L463.84,235.68L462.22,232.90L460.00,231.52L461.00,231.48L463.00,231.44L462.63,231.97L460.30,232.30L461.36,231.21L464.40,229.60L463.04,229.90L466.25,226.25L468.24,224.27L469.48,222.29L472.30,219.30L475.33,216.48L476.35,214.06L480.55,209.56L483.12,206.33L486.67,202.80L487.72,200.25L490.74,196.74L492.71,194.71L494.76,192.62L498.16,190.54L497.68,190.54L501.11,188.44L500.52,188.52L501.48,187.48L502.45,186.45L504.76,184.86L507.65,184.03L504.79,185.71L505.32,183.32L506.58,182.34L508.03,181.69L509.60,181.40L511.19,181.50L512.71,181.97L514.08,182.79L515.21,183.92L516.03,185.29L516.50,186.81L516.60,188.40L516.31,189.97L515.66,191.42L514.68,192.68L510.00,195.61L515.65,189.00L509.00,196.69L514.72,190.00L514.18,192.40L511.81,196.81L511.42,196.42L512.27,195.42L509.94,199.78L509.56,200.71L505.71,203.57L507.13,203.19L504.06,206.60L504.48,207.23L501.62,211.78L498.80,214.76L497.57,216.71L495.54,219.62L495.10,221.36L491.84,225.40L492.27,225.98L492.55,226.31L491.02,230.66L491.69,230.00L491.72,231.00L491.75,233.00L491.79,234.00L491.23,233.59L490.85,231.15L490.44,231.54L489.43,230.68L488.43,232.20L488.22,230.70L492.35,230.23L492.16,229.29L493.15,228.15L496.26,225.26L498.26,223.26L501.35,220.35L504.42,217.46L505.68,215.42L509.54,211.54L512.59,208.60L515.16,205.36L518.76,201.76L521.79,198.79L524.84,195.81L528.70,193.09L529.72,191.85L529.65,191.22L532.70,187.70L534.92,186.12L532.80,191.00L539.00,183.75L533.70,190.00L533.88,188.49L534.42,187.07L535.29,185.82L536.42,184.82L537.77,184.11L539.24,183.75L540.76,183.75L542.23,184.11L543.58,184.82L544.72,185.82L545.58,187.07L546.12,188.49L546.30,190.00L545.30,190.00L539.00,197.35L544.39,191.00L538.00,198.44L538.34,197.92L540.61,197.61L540.21,197.29L541.04,196.37L538.70,200.70L537.73,201.73L536.76,202.76L535.79,203.79L534.81,204.81L533.90,205.74L534.13,206.06L533.14,208.07L532.16,210.07L531.48,212.16L530.45,215.15L529.41,218.15L526.90,222.94L526.21,225.13L523.43,229.61L522.86,230.93L521.89,232.95L520.99,234.65L515.00,239.65L507.31,233.00L507.27,232.00L507.82,229.60L509.61,226.60L508.17,229.00L508.72,226.58L511.06,222.22L510.89,221.82L513.08,219.12L514.30,217.20L516.37,214.24L519.79,210.08L525.81,204.81L529.67,200.49L535.69,195.87L540.51,191.51L546.03,187.28L550.14,184.16L554.83,181.64L558.42,180.26L561.38,179.14L564.43,178.03L568.00,177.66L571.13,178.02L574.91,180.09L576.45,182.19L577.71,187.00L577.79,189.00L577.81,191.28L576.31,195.66L573.98,199.25L573.53,201.14L569.26,206.12L568.25,208.64L564.60,213.45L562.81,216.20L561.13,219.57L558.80,223.20L556.81,226.23L554.20,229.06L554.37,229.37L554.92,228.28L553.36,232.79L551.85,234.06L552.65,234.28L550.95,237.12L552.29,235.00L546.00,229.66L547.00,229.62L548.00,229.57L547.66,230.08L545.39,230.39L547.40,228.37L551.39,225.63L552.41,224.41L555.49,221.48L560.28,218.05L564.38,215.18L568.47,212.29L573.53,208.67L577.20,205.19L581.80,201.74L586.83,198.02L592.44,194.74L596.01,192.02L600.01,189.02L604.00,186.02L606.44,183.42L610.13,180.73L611.28,179.28L614.25,176.25L616.18,174.18L618.10,172.13L619.39,169.90L621.96,167.09L621.82,166.71L621.21,168.00L621.15,167.00L627.00,171.91L626.00,171.97L625.25,171.52L627.23,171.37L623.75,173.51L621.78,174.56L619.89,175.55L619.45,176.45L617.21,178.63L612.69,180.48L613.11,181.63L608.50,185.21L606.38,187.37L603.82,190.61L600.94,194.97L596.25,200.40L592.05,205.23L589.33,209.60L586.30,215.15L583.06,220.44L579.88,224.73L579.69,227.27L577.29,231.30L578.06,232.24L576.74,236.09L576.89,234.89L575.72,232.69L575.14,231.97L577.80,233.57L577.00,232.32L578.73,232.29L578.38,231.77L580.35,230.70L582.76,229.04L586.86,227.48L587.83,225.79L591.69,223.07L593.83,220.84L596.39,217.53L601.05,213.06L603.60,209.70L606.66,205.75L609.49,201.29L611.28,197.64L613.56,194.01L617.06,190.42L616.95,189.05L621.11,184.14L622.41,181.91L624.88,179.26L624.75,177.97L627.93,173.93L628.37,174.08L633.00,170.11L628.05,176.00L628.22,174.58L628.73,173.23L629.55,172.05L630.62,171.10L631.89,170.44L633.28,170.09L634.72,170.09L636.11,170.44L637.38,171.10L638.45,172.05L639.27,173.24L639.78,174.58L639.95,176.00L638.95,176.00L638.49,178.24L636.29,182.29L635.86,182.07L636.66,181.28L634.42,185.42L633.46,186.46L632.49,187.49L632.08,187.20L632.90,187.34L630.66,191.51L630.26,192.51L626.53,195.29L627.90,194.95L626.93,196.96L625.95,198.98L624.91,201.08L621.89,204.45L622.31,205.11L620.97,207.99L618.51,211.66L617.94,212.98L615.51,216.60L615.20,218.13L612.45,222.56L612.16,224.08L606.91,231.81L604.75,235.14L603.13,239.11L599.38,244.28L596.55,248.73L593.48,254.24L588.89,260.59L586.03,266.01L581.56,273.04L577.29,279.19L574.50,284.75L570.16,291.81L567.22,296.93L564.36,302.68L561.30,307.98L558.23,312.37L556.80,316.56L553.39,321.54L550.47,325.60L547.55,329.66L545.81,332.56L542.31,336.34L538.70,339.01L537.45,340.57L534.04,342.62L530.00,343.22L528.00,343.34L527.00,343.41L525.00,343.51L522.84,343.10L520.17,341.49L516.27,337.00L516.69,336.20L516.34,336.94L515.07,331.00L514.99,329.00L514.95,326.00L514.93,322.90L516.20,318.07L517.21,315.01L519.90,310.60L521.91,307.61L523.93,304.59L527.74,300.71L531.63,297.98L533.76,295.76L537.93,291.92L543.60,287.75L548.77,283.96L553.90,280.13L558.71,275.69L565.56,271.34L571.39,266.87L576.20,262.20L581.53,257.91L587.61,253.14L592.65,249.06L596.26,245.26L601.36,240.33L607.04,236.74L611.67,233.09L616.75,229.18L621.86,225.31L627.31,222.18L631.10,219.47L635.23,216.63L638.43,214.65L642.83,212.76L644.33,211.33L646.52,209.47L649.14,208.27L651.24,207.48L653.34,206.74L654.13,206.11L656.30,205.63L656.29,204.84L657.73,203.57L658.99,202.00L659.00,202.00L659.01,202.00L658.27,204.43L657.71,205.16L657.70,206.37L655.87,207.89L654.66,209.26L652.76,210.52L650.86,211.73L649.48,212.53L647.67,214.67L645.17,217.24L641.57,219.35L638.77,221.37L634.90,224.53L630.69,227.82L626.14,230.69L621.25,234.82L616.33,238.91L610.96,243.26L606.64,245.67L601.74,250.74L597.35,254.94L592.39,258.86L586.47,264.09L581.80,267.80L576.61,273.13L570.44,278.66L565.29,282.31L560.10,287.87L555.23,292.04L550.40,296.25L546.07,300.08L542.24,304.24L538.37,308.02L536.26,309.29L534.07,311.41L532.09,314.39L530.10,317.40L528.79,318.99L527.80,321.93L527.07,323.10L527.05,326.00L527.01,329.00L526.93,331.00L525.66,331.06L527.31,333.80L527.73,337.00L525.83,332.51L525.16,332.90L525.00,332.49L527.00,332.59L528.00,332.66L530.00,332.78L529.96,333.38L530.55,333.43L533.30,330.99L535.69,329.66L538.19,327.44L540.45,324.34L543.53,320.40L546.61,316.46L549.20,313.44L551.77,307.63L554.70,304.02L557.64,299.32L560.78,293.07L563.84,288.19L567.50,281.25L570.71,274.81L574.44,268.96L577.97,261.99L581.11,255.41L584.52,249.76L587.45,243.27L590.62,237.72L592.87,234.89L595.25,228.86L597.09,226.19L599.84,219.92L601.55,215.44L602.80,213.87L604.49,209.40L606.06,207.02L607.49,204.34L609.03,202.01L609.69,200.89L612.11,195.55L613.09,194.92L614.05,193.02L615.07,191.04L616.10,189.05L619.47,184.71L619.74,185.49L621.34,182.49L621.10,184.66L621.92,180.80L623.51,178.51L624.54,177.54L625.58,176.58L625.34,178.72L626.14,175.93L627.71,173.71L627.51,175.76L627.05,176.00L628.05,176.00L628.22,174.58L628.73,173.24L629.55,172.05L630.62,171.10L631.89,170.44L633.28,170.09L634.72,170.09L636.11,170.44L637.38,171.10L638.45,172.05L639.27,173.23L639.78,174.58L639.95,176.00L633.00,181.89L637.63,179.92L636.07,182.07L635.25,182.03L633.12,186.74L631.59,188.09L628.89,191.86L627.05,192.95L624.94,197.58L622.44,199.99L620.72,202.36L618.51,206.71L615.34,212.25L612.40,216.30L608.95,220.94L605.61,224.47L602.17,229.16L598.31,232.93L596.17,234.21L591.14,238.52L589.24,238.96L585.65,241.30L583.62,242.23L579.27,243.71L577.00,243.68L572.20,242.43L572.86,242.03L570.28,241.31L567.11,237.11L567.26,231.91L567.94,231.76L568.71,226.70L570.31,224.73L572.12,219.27L574.94,215.56L577.70,210.85L580.67,204.40L583.95,198.77L587.75,193.60L591.06,189.03L594.18,183.39L597.62,178.63L601.50,174.79L602.89,174.37L607.31,169.52L608.79,169.37L610.55,167.55L614.11,164.45L616.22,163.44L618.25,162.49L618.77,162.63L622.75,160.48L626.00,160.03L627.00,160.09L632.85,167.00L632.79,168.00L632.18,171.29L630.04,174.91L628.61,176.10L625.90,179.87L623.82,181.82L621.75,183.75L618.72,186.72L615.87,189.27L613.56,190.58L610.00,193.98L605.99,196.98L601.99,199.98L597.56,203.26L593.17,205.98L588.20,210.26L584.80,212.81L580.47,217.33L575.53,221.71L571.62,224.82L567.72,227.95L564.51,230.52L561.59,233.59L558.61,236.37L556.60,237.63L554.61,239.61L550.34,241.92L548.00,242.43L547.00,242.38L546.00,242.34L539.71,235.00L541.05,230.88L541.35,231.72L542.15,227.94L542.64,227.21L543.08,227.72L543.63,224.63L545.80,220.94L547.19,219.77L549.20,216.80L550.87,214.43L553.19,209.80L555.40,206.55L557.75,203.36L560.74,197.88L562.47,196.86L564.02,192.75L565.69,190.34L566.19,190.72L566.21,189.00L566.29,187.00L567.55,187.81L567.09,187.91L568.87,187.98L568.00,188.34L567.57,187.97L564.62,188.86L561.58,189.74L559.17,190.36L555.86,191.84L551.97,194.72L547.49,198.49L542.31,204.13L538.33,207.51L534.19,213.19L530.21,217.92L527.63,221.76L525.70,224.80L522.92,228.88L523.11,228.18L520.94,231.78L521.28,229.42L521.83,229.00L520.39,233.40L520.18,232.40L520.73,232.00L520.69,233.00L515.00,226.35L509.01,229.35L510.11,227.05L511.14,225.07L512.57,222.39L513.79,220.87L515.10,217.06L516.59,213.85L517.55,210.85L518.52,207.84L519.84,203.93L520.86,201.93L521.87,199.94L524.10,196.26L525.19,195.19L526.21,194.21L527.24,193.24L528.27,192.27L529.30,191.30L528.96,193.63L529.79,190.71L531.39,188.39L535.66,186.08L538.00,185.56L531.61,191.00L539.00,184.65L532.70,190.00L533.70,190.00L533.88,188.49L534.42,187.07L535.28,185.82L536.42,184.82L537.77,184.11L539.24,183.75L540.76,183.75L542.23,184.11L543.58,184.82L544.71,185.82L545.58,187.07L546.12,188.49L546.30,190.00L539.00,196.25L545.20,191.00L541.08,195.88L541.30,196.30L540.35,196.78L538.28,200.15L535.30,202.91L533.16,204.19L530.21,207.21L527.24,210.24L524.84,212.64L521.41,217.40L518.46,220.46L516.32,222.58L513.58,226.54L510.65,229.65L507.74,232.74L505.74,234.74L502.85,237.85L499.84,240.71L493.65,243.77L493.78,243.30L489.57,243.80L486.57,243.32L483.56,242.46L481.15,240.85L478.77,236.41L478.21,234.00L478.25,233.00L478.28,231.00L478.31,230.00L478.98,225.34L479.45,225.69L479.73,222.02L482.16,216.60L482.90,216.64L484.46,212.38L486.43,209.29L489.20,205.24L490.38,204.22L491.52,202.77L493.94,197.40L494.87,196.81L498.29,192.43L498.44,193.29L500.06,190.22L499.73,192.58L500.58,189.58L502.19,187.19L501.82,189.60L501.28,190.00L509.00,183.31L502.35,189.00L510.00,182.39L505.32,183.32L506.58,182.34L508.03,181.69L509.60,181.40L511.19,181.50L512.71,181.97L514.08,182.79L515.21,183.92L516.03,185.29L516.50,186.81L516.60,188.40L516.31,189.97L515.66,191.42L514.68,192.68L515.21,192.29L510.35,195.97L511.24,195.14L511.55,195.55L510.52,196.52L509.48,197.48L506.89,199.56L506.32,199.46L503.84,201.46L503.24,201.38L501.29,203.29L499.26,205.26L498.28,205.75L495.33,211.20L492.88,213.67L489.45,218.44L487.65,219.94L484.67,225.52L481.70,228.70L480.52,229.71L477.76,233.73L475.75,235.75L474.96,236.10L471.60,240.40L470.64,240.79L469.70,241.70L465.37,244.03L463.00,244.56L461.00,244.52L460.00,244.48L455.78,243.10L452.16,238.32L451.66,236.00L451.71,235.00L451.76,233.00L452.12,229.15L453.16,226.05L454.30,222.72L455.81,218.44L457.19,213.13L458.71,209.89L459.68,206.89L461.02,203.02L461.42,203.69L462.75,198.69L462.98,199.64L463.81,196.73L464.06,197.66L463.55,198.00L470.00,190.55L471.54,190.74L473.00,191.29L474.28,192.17L475.31,193.33L476.03,194.71L476.40,196.22L476.40,197.78L476.03,199.29L475.31,200.66L474.28,201.83L473.00,202.71L471.54,203.26L470.00,203.45L476.41,198.00L469.00,204.36L475.32,199.00L470.51,204.68L471.00,203.34L469.41,206.27L468.31,207.31L464.79,210.36L464.15,210.29L461.27,213.27L459.40,214.81L456.45,220.30L454.02,222.78L451.40,226.60L448.64,230.61L446.62,232.62L444.89,234.07L442.76,237.60L441.87,238.06L438.55,242.32L437.56,242.71L436.62,243.62L432.34,245.93L426.78,245.11L424.48,243.52L422.21,239.31L421.71,237.00L421.76,236.00L421.81,235.00L422.44,231.54L423.56,229.28L424.30,228.09L425.33,225.11L426.68,221.35L428.62,217.31L430.76,212.86L433.24,208.12L434.76,204.91L437.16,199.60L438.16,198.96L440.29,195.44L440.03,197.65L439.52,198.00L447.00,191.56L453.40,199.00L449.18,204.04L450.57,202.90L448.48,206.33L447.38,207.38L445.35,209.35L443.32,211.32L441.29,213.29L438.34,216.34L436.31,218.31L433.36,221.36L430.41,224.41L427.48,227.48L424.55,230.55L422.43,232.65L419.68,236.65L416.76,239.76L414.77,241.77L411.11,244.98L406.32,246.66L404.00,246.70L403.00,246.67L398.69,245.26L396.34,243.66L394.02,239.35L393.50,237.00L393.54,235.00L394.16,229.42L394.92,227.96L395.91,224.97L397.63,220.49L399.23,218.11L401.50,213.34L403.45,210.30L406.22,206.26L407.03,205.89L409.18,202.33L411.24,200.24L412.27,199.27L414.26,197.26L415.29,196.29L416.32,195.32L417.35,194.35L418.38,193.38L419.41,192.41L423.67,190.12L419.56,196.00L419.74,194.46L420.30,193.01L421.18,191.73L422.34,190.70L423.72,189.98L425.22,189.60L426.78,189.60L428.28,189.98L429.66,190.70L430.82,191.73L431.70,193.01L432.26,194.46L432.44,196.00L430.84,198.32L430.03,201.17L429.57,201.90L428.58,203.79L426.43,207.29L425.44,207.83L423.36,211.22L422.01,212.37L420.03,215.35L418.03,218.35L415.29,222.25L412.88,224.67L409.45,229.43L406.51,232.51L404.38,234.61L401.63,238.60L397.71,242.52L394.01,245.01L392.00,245.99L387.32,247.60L384.00,247.69L383.00,247.65L378.35,246.99L378.69,246.52L377.00,246.55L373.40,245.90L373.69,245.40L369.78,244.10L366.17,239.32L365.67,237.00L365.71,236.00L366.07,232.13L367.10,229.03L368.81,224.61L370.83,221.55L372.81,218.54L374.79,215.53L376.97,212.23L379.60,208.40L383.24,203.70L385.36,202.32L388.25,199.25L391.25,196.41L393.21,195.17L395.18,193.18L398.85,189.95L399.27,190.11L404.58,186.75L404.59,187.60L407.60,185.80L411.00,185.25L412.00,185.28L414.00,185.31L415.00,185.35L419.31,186.76L418.36,186.99L421.26,187.82L424.93,192.66L425.44,195.00L420.00,188.61L426.35,196.00L425.00,200.15L420.29,203.71L418.00,204.20L411.85,197.00L413.95,201.83L414.75,201.51L412.01,200.74L412.78,200.40L412.00,200.82L411.31,200.22L407.27,201.61L404.70,201.39L400.09,202.59L398.30,202.36L394.33,203.34L390.73,204.20L387.31,205.24L383.70,206.09L381.35,206.72L378.26,208.11L373.91,211.91L370.46,215.57L366.76,220.81L362.64,226.63L360.55,228.73L359.38,230.19L358.08,234.03L357.06,236.03L356.04,238.02L355.66,237.32L355.70,238.00L355.66,239.00L355.65,240.00L355.46,241.59L354.89,243.09L353.98,244.41L352.78,245.47L351.36,246.22L349.80,246.60L348.20,246.60L346.64,246.22L345.22,245.47L344.02,244.41L343.11,243.09L342.54,241.59L342.35,240.00L343.45,237.69L344.04,233.37L345.14,231.07L345.82,229.93L347.15,226.09L347.84,224.94L348.83,221.94L350.55,217.44L351.79,215.87L353.10,212.06L354.59,208.85L355.92,204.97L356.94,202.97L359.16,199.31L358.86,201.61L359.70,198.66L359.93,199.62L359.40,200.00L363.72,194.80L366.65,193.04L369.00,192.52L370.00,192.57L371.00,192.61L377.34,200.00L372.00,193.70L365.75,199.00L368.58,194.58L369.76,193.65L371.14,193.03L372.62,192.76L374.13,192.85L375.57,193.30L376.86,194.08L377.92,195.14L378.70,196.43L379.15,197.87L379.24,199.38L378.97,200.86L378.35,202.24L377.42,203.42L376.38,204.38L375.34,205.34L375.37,204.80L373.31,208.17L371.94,209.32L369.22,213.19L367.16,215.16L365.83,216.25L363.12,220.09L360.20,222.76L358.62,223.28L355.47,227.45L352.07,230.08L349.10,233.10L346.12,236.12L342.29,240.29L339.33,243.33L335.46,247.15L331.79,249.56L327.29,251.10L325.00,251.10L323.00,251.04L319.01,249.74L315.77,246.72L315.82,246.05L313.73,242.19L313.31,238.00L313.38,235.00L313.46,232.00L313.81,227.36L314.79,224.70L316.22,219.64L317.80,216.91L319.16,210.64L321.51,206.02L323.25,203.62L325.26,199.63L328.21,194.33L330.35,192.58L332.32,188.66L334.82,183.89L337.80,179.85L340.47,176.28L344.11,170.17L346.35,168.17L349.98,162.04L351.99,160.39L354.92,155.05L356.94,153.37L359.87,148.00L362.38,145.52L365.82,140.83L367.73,139.26L370.68,133.81L373.69,130.69L374.65,130.21L375.65,128.32L377.76,124.90L378.87,123.87L378.90,124.35L380.93,121.06L382.04,120.04L383.10,119.10L383.04,120.88L382.65,121.00L386.36,116.82L390.00,114.74L391.26,114.90L392.44,115.35L393.49,116.07L394.33,117.01L394.91,118.14L395.22,119.37L395.22,120.63L394.91,121.86L394.33,122.99L393.49,123.93L392.44,124.65L391.26,125.10L390.00,125.26L395.18,121.00L389.00,126.10L392.98,124.51L392.34,125.26L391.26,127.13L390.13,129.06L388.71,131.47L386.56,134.37L384.65,136.83L382.35,141.01L378.98,146.38L375.15,151.10L371.24,157.16L367.35,163.23L363.49,169.33L359.67,175.44L356.00,181.40L352.93,186.62L349.35,192.61L346.06,198.24L342.68,202.82L339.04,208.98L336.02,212.06L332.95,217.71L330.09,221.82L327.48,225.65L324.72,229.68L321.80,232.80L319.81,234.81L317.82,236.82L315.83,238.83L315.06,239.15L311.67,243.50L311.49,242.66L308.65,246.48L303.32,248.71L305.38,247.35L302.39,249.14L300.00,249.68L299.00,249.64L298.00,249.60L297.00,249.56L296.00,249.52L289.52,242.00L289.57,241.00L290.21,237.44L291.32,235.16L292.37,233.18L293.08,232.02L293.79,230.90L294.70,226.16L296.51,223.25L297.26,222.08L299.01,217.74L300.43,216.09L302.77,211.15L304.32,209.85L307.09,206.12L309.54,204.00L311.67,201.11L314.44,197.47L316.60,195.60L318.75,193.75L320.91,191.91L323.08,190.08L326.21,187.57L328.36,186.73L329.62,186.54L332.32,185.01L335.00,184.95L336.00,185.07L338.12,185.46L339.12,186.46L341.22,187.06L342.61,188.39L343.50,189.50L344.78,191.60L344.66,192.27L345.57,194.92L345.48,196.00L345.36,197.00L345.15,199.00L345.04,200.00L344.71,201.43L341.01,203.01Z" fill="white">

</path><path d="M507.99,158.00L506.16,154.20L506.03,153.00L506.02,151.78L507.03,150.39L506.78,149.72L508.25,147.81L510.00,147.39L511.00,147.27L512.00,147.15L513.41,147.20L515.06,148.31L515.47,147.94L517.21,149.09L517.53,148.68L519.91,150.09L521.03,150.97L521.40,151.78L523.71,154.00L523.39,154.46L523.75,154.25L524.15,155.17L526.19,157.00L524.00,155.94L526.93,158.00L526.87,158.46L526.71,158.90L526.44,159.28L526.09,159.59L525.68,159.80L525.23,159.91L524.77,159.91L524.32,159.80L523.91,159.58L523.56,159.28L523.29,158.89L523.13,158.46L523.07,158.00L524.85,160.35L523.00,160.56L523.40,159.00L522.00,161.23L521.00,161.06L520.00,160.88L518.86,160.64L516.99,158.00L517.00,158.00L517.01,158.00L519.14,159.36L520.00,159.12L521.00,158.94L522.00,158.77L520.60,159.00L523.00,157.44L523.15,157.65L526.93,158.00L526.87,158.46L526.71,158.89L526.44,159.28L526.09,159.58L525.68,159.80L525.23,159.91L524.77,159.91L524.32,159.80L523.91,159.59L523.56,159.28L523.29,158.90L523.13,158.46L523.07,158.00L524.00,160.06L521.81,157.00L521.85,158.83L520.25,157.75L518.61,155.54L518.29,154.00L518.60,156.22L516.97,155.03L516.09,153.91L516.47,153.32L514.79,152.91L514.53,152.06L512.94,151.69L512.59,150.80L512.00,150.85L511.00,150.73L510.00,150.61L509.75,150.19L509.22,150.28L508.97,151.61L507.98,152.22L507.97,153.00L507.84,153.80L508.01,158.00Z" fill="white">

</path><path d="M510.01,158.99L510.00,159.00L509.99,159.01Z" fill="white">

</path>
</mask>
</svg>